Coordinates
version=1
nRows=13
nColumns=22
inDegrees=yes

Units are S.I. units (second, meters, Newtons, ...)
If the header above contains a line with 'inDegrees', this indicates whether rotational values are in degrees (yes) or radians (no).

endheader
time	pelvis_tilt	pelvis_list	pelvis_rotation	pelvis_tx	pelvis_ty	pelvis_tz	hip_flexion_r	hip_adduction_r	hip_rotation_r	knee_angle_r	ankle_angle_r	subtalar_angle_r	hip_flexion_l	hip_adduction_l	hip_rotation_l	knee_angle_l	ankle_angle_l	subtalar_angle_l	lumbar_extension	lumbar_bending	lumbar_rotation
      2.70000000	     -6.64338453	     -1.37590564	      2.04522325	     -0.27682428	      0.98854678	      0.20383083	     31.36776410	     -3.65599292	    -13.17764228	    -15.23842130	      6.13692588	     12.39690484	      2.66685825	     -1.82661727	    -10.22396169	    -16.36080870	     18.92788330	      1.15874006	     -4.76411478	     -1.57408046	     -2.67591556
      2.71000000	     -6.58099106	     -1.27220886	      1.90046925	     -0.28392206	      0.98981073	      0.20293200	     31.53940793	     -3.85441955	    -13.94181263	    -16.29504750	      6.11195456	     11.88097084	      2.97173753	     -1.61420169	    -10.33546264	    -16.24300827	     18.56945940	      0.92187599	     -4.88345018	     -1.77710352	     -2.51624798
      2.72000000	     -6.50353344	     -1.18122331	      1.76052611	     -0.29079762	      0.99122619	      0.20212530	     31.68705221	     -4.05506102	    -14.62619536	    -17.51700282	      6.07455780	     11.32274044	      3.25243982	     -1.42694257	    -10.43242347	    -16.12686360	     18.14249149	      0.69497417	     -5.00040591	     -1.95718672	     -2.39433153
      2.73000000	     -6.40808003	     -1.13000780	      1.62539345	     -0.29745424	      0.99277614	      0.20142505	     31.78629779	     -4.22329126	    -15.22032389	    -18.84900229	      6.00571857	     10.71884442	      3.50321672	     -1.29581991	    -10.53374556	    -16.00628527	     17.67951962	      0.45489783	     -5.11126152	     -2.08723710	     -2.29837422
      2.74000000	     -6.26351433	     -1.08690328	      1.52161391	     -0.30392947	      0.99448015	      0.20076043	     31.79857764	     -4.40566370	    -15.72802063	    -20.27492884	      6.04164016	     10.32553057	      3.68374734	     -1.17416748	    -10.55322687	    -15.86386684	     17.16497044	      0.35945494	     -5.26311270	     -2.20070020	     -2.23605449
      2.75000000	     -6.12966314	     -1.08989352	      1.41193056	     -0.31022655	      0.99620882	      0.20019881	     31.78258739	     -4.53687833	    -16.12799348	    -21.74889617	      6.01354512	      9.80789177	      3.85376212	     -1.10875462	    -10.60171835	    -15.69549764	     16.65513213	      0.16767132	     -5.37166025	     -2.25428288	     -2.19321582
      2.76000000	     -5.97359376	     -1.11756383	      1.33376860	     -0.31641938	      0.99798427	      0.19968358	     31.69713007	     -4.65101447	    -16.40876255	    -23.25463303	      6.05847992	      9.46122986	      3.99660668	     -1.07300515	    -10.61424609	    -15.52602074	     16.11673342	      0.07194535	     -5.49559112	     -2.27390366	     -2.18800448
      2.77000000	     -5.83609365	     -1.17408790	      1.25833243	     -0.32249605	      0.99970101	      0.19925829	     31.59337765	     -4.72751938	    -16.56696342	    -24.78341357	      6.08093476	      9.07423749	      4.13857908	     -1.07223620	    -10.64479712	    -15.32631500	     15.61017942	     -0.07747079	     -5.57798215	     -2.25721306	     -2.19839934
      2.78000000	     -5.71368517	     -1.25180579	      1.19833234	     -0.32849602	      1.00133053	      0.19890408	     31.46810660	     -4.77704208	    -16.60718123	    -26.32734400	      6.11829171	      8.73480963	      4.29284979	     -1.09950442	    -10.67932698	    -15.12460334	     15.12861250	     -0.21614969	     -5.63264797	     -2.21250536	     -2.23121545
      2.79000000	     -5.61061428	     -1.33643781	      1.16188407	     -0.33442695	      1.00283826	      0.19863178	     31.32781599	     -4.81102042	    -16.52981454	    -27.87937094	      6.17662410	      8.44986074	      4.46509511	     -1.14143907	    -10.70896274	    -14.92464425	     14.67778580	     -0.33007648	     -5.65762320	     -2.16476827	     -2.28502702
      2.80000000	     -5.53113270	     -1.41414026	      1.14724296	     -0.34029207	      1.00418538	      0.19843874	     31.18518847	     -4.84158169	    -16.34206610	    -29.44691862	      6.25137541	      8.18924919	      4.65997824	     -1.18171670	    -10.72767176	    -14.72571295	     14.26463392	     -0.44408415	     -5.65018232	     -2.12963821	     -2.35641003
      2.81000000	     -5.47018706	     -1.48188058	      1.16086970	     -0.34608467	      1.00536058	      0.19831583	     31.03468345	     -4.87251493	    -16.05593121	    -31.02602360	      6.34845780	      7.97273264	      4.87727936	     -1.21800262	    -10.72054761	    -14.54074141	     13.88864267	     -0.55105424	     -5.61921134	     -2.11183030	     -2.44292643
      2.82000000	     -5.42297911	     -1.53045931	      1.20398577	     -0.35180565	      1.00635934	      0.19826725	     30.87428034	     -4.91130334	    -15.68405564	    -32.61673868	      6.47475582	      7.80283163	      5.11463615	     -1.24056699	    -10.68288268	    -14.37518822	     13.53701045	     -0.66014972	     -5.57264069	     -2.12378392	     -2.54430240
